<svg id="svg" version="1.1" xmlns="http://www.w3.org/2000/svg" viewBox="0 0 120 120" style="display: block;"><path d="M0 0 C39.6 0 79.2 0 120 0 C120 39.6 120 79.2 120 120 C80.4 120 40.8 120 0 120 C0 80.4 0 40.8 0 0 Z " transform="translate(0,0)" style="fill: #050707;"/><path d="M0 0 C9.62171002 1.97829552 17.45729439 8.05916101 23 16 C23 16.66 23 17.32 23 18 C21.35 18.33 19.7 18.66 18 19 C17.67 20.98 17.34 22.96 17 25 C16.34 25 15.68 25 15 25 C13.52734375 23.13671875 13.52734375 23.13671875 11.9375 20.6875 C11.41027344 19.88699219 10.88304688 19.08648438 10.33984375 18.26171875 C9 16 9 16 8 13 C7.34 13 6.68 13 6 13 C6.5775 14.05058594 7.155 15.10117187 7.75 16.18359375 C15.2338018 30.18592195 15.2338018 30.18592195 14 38 C13 39 13 39 10.625 39.25 C8 39 8 39 6.1875 37.875 C4.50893894 35.22464043 4.79549762 33.06753576 5 30 C6.32 31.32 7.64 32.64 9 34 C8.77704076 28.98341704 7.4862366 25.84784479 4.9375 21.5 C2.30725192 16.94885475 1.30718087 14.19614349 2 9 C1.34 9 0.68 9 0 9 C-0.08040527 9.80630859 -0.16081055 10.61261719 -0.24365234 11.44335938 C-0.61470582 15.12954537 -0.9947757 18.81474913 -1.375 22.5 C-1.56449219 24.40265625 -1.56449219 24.40265625 -1.7578125 26.34375 C-2.42328271 32.73226397 -3.20724454 38.82668554 -5 45 C-3.35 45.33 -1.7 45.66 0 46 C0.268125 45.030625 0.53625 44.06125 0.8125 43.0625 C1.4003125 41.5465625 1.4003125 41.5465625 2 40 C2.99 39.67 3.98 39.34 5 39 C7.5 41.3125 7.5 41.3125 10 44 C10 44.99 10 45.98 10 47 C7.00667261 46.0022242 6.05233685 45.2477975 4 43 C7.25881949 49.78305416 7.25881949 49.78305416 11.1875 56.1875 C14.09170959 60.69403212 15.61516085 65.61734259 15 71 C13 73 13 73 10.5 73.3125 C9.675 73.209375 8.85 73.10625 8 73 C5.8480563 69.77208445 5.79913557 68.71599191 6 65 C6.66 64.67 7.32 64.34 8 64 C8.33 65.98 8.66 67.96 9 70 C9.66 70 10.32 70 11 70 C9.71383443 63.56917213 7.39374748 58.59579736 4 53 C3.81824219 53.78246094 3.63648437 54.56492188 3.44921875 55.37109375 C3.19785156 56.38300781 2.94648437 57.39492187 2.6875 58.4375 C2.44386719 59.44683594 2.20023437 60.45617187 1.94921875 61.49609375 C1.63597656 62.32238281 1.32273437 63.14867187 1 64 C-0.485 64.495 -0.485 64.495 -2 65 C-1.505 70.94 -1.505 70.94 -1 77 C-2.485 77.495 -2.485 77.495 -4 78 C-4 79.65 -4 81.3 -4 83 C-4.99 83 -5.98 83 -7 83 C-7.66 80.03 -8.32 77.06 -9 74 C-9.99 74 -10.98 74 -12 74 C-12.33 79.28 -12.66 84.56 -13 90 C-14.98 90.495 -14.98 90.495 -17 91 C-17 90.01 -17 89.02 -17 88 C-17.66 88 -18.32 88 -19 88 C-19.99 85.36 -20.98 82.72 -22 80 C-22.33 83.63 -22.66 87.26 -23 91 C-24.98 91 -26.96 91 -29 91 C-29.33 92.65 -29.66 94.3 -30 96 C-30.99 96 -31.98 96 -33 96 C-33.33 94.68 -33.66 93.36 -34 92 C-34.66 94.31 -35.32 96.62 -36 99 C-44.60064663 97.20673831 -54.12394776 89.1910149 -58.8984375 81.94140625 C-60.74638073 78.68457014 -62.47062714 75.41903068 -64 72 C-64.4125 71.0925 -64.825 70.185 -65.25 69.25 C-66 67 -66 67 -66 63 C-64.35 63 -62.7 63 -61 63 C-60.67 56.4 -60.34 49.8 -60 43 C-58.68 43.33 -57.36 43.66 -56 44 C-55.67 45.32 -55.34 46.64 -55 48 C-54.34 47.34 -53.68 46.68 -53 46 C-52.67 46.33 -52.34 46.66 -52 47 C-51.34 41.72 -50.68 36.44 -50 31 C-46 31 -46 31 -43 32 C-42.67 36.29 -42.34 40.58 -42 45 C-41.01 36.09 -41.01 36.09 -40 27 C-38.68 27.66 -37.36 28.32 -36 29 C-35.67 27.02 -35.34 25.04 -35 23 C-31.83884224 24.36983503 -31.0072908 24.9890638 -29 28 C-28.67 25.69 -28.34 23.38 -28 21 C-26.68 20.67 -25.36 20.34 -24 20 C-21.1009238 24.21683811 -20.08656644 28.06866002 -19 33 C-17.12175109 31.12175109 -17.60897603 27.96064724 -17.4375 25.4375 C-17.35371094 24.23996094 -17.26992188 23.04242188 -17.18359375 21.80859375 C-17.09271484 20.41833984 -17.09271484 20.41833984 -17 19 C-18.65 19 -20.3 19 -22 19 C-20.88424427 15.65273281 -20.48655378 15.37920252 -17.5625 13.75 C-16.386875 13.1725 -15.21125 12.595 -14 12 C-13.34 12.33 -12.68 12.66 -12 13 C-12.144375 14.299375 -12.28875 15.59875 -12.4375 16.9375 C-12.57285156 18.17306641 -12.57285156 18.17306641 -12.7109375 19.43359375 C-12.89322254 21.05198928 -13.08467663 22.66940307 -13.2890625 24.28515625 C-13.9405132 29.56190693 -14.08440493 34.68248936 -14 40 C-11.525 39.505 -11.525 39.505 -9 39 C-8.52548967 36.00182011 -8.09516804 33.00738721 -7.6875 30 C-7.48157227 28.74123047 -7.48157227 28.74123047 -7.27148438 27.45703125 C-6.51533698 21.54533347 -7.29887662 18.38690617 -10.88208008 13.59375 C-12 12 -12 12 -12 10 C-9.13275314 10.57344937 -8.1385485 10.8614515 -6 13 C-5.34 10.03 -4.68 7.06 -4 4 C-2.68 4 -1.36 4 0 4 C0 2.68 0 1.36 0 0 Z " transform="translate(79,11)" style="fill: #171717;"/><path d="M0 0 C39.6 0 79.2 0 120 0 C120 39.6 120 79.2 120 120 C80.4 120 40.8 120 0 120 C0 80.4 0 40.8 0 0 Z M14 22 C2.86325344 36.76365635 -0.50568812 51.62501567 1.27734375 69.83203125 C3.89153041 85.24328405 12.55511382 98.69098847 25 108 C38.31321663 117.24160699 52.94022885 121.00391205 69 119 C84.34262333 115.97241773 98.4658611 107.81312855 107.75 95.1875 C116.78115274 81.49443276 121.66629027 65.3034323 118.60888672 48.90185547 C116.44617308 39.62102128 112.770896 31.62805259 107 24 C106.45472656 23.27296875 105.90945312 22.5459375 105.34765625 21.796875 C98.37437295 13.19922688 89.16694433 8.0284119 79 4 C77.86884766 3.51853516 77.86884766 3.51853516 76.71484375 3.02734375 C54.15959238 -5.2906306 29.53919077 5.34707883 14 22 Z " transform="translate(0,0)" style="fill: #FBFBFB;"/><path d="M0 0 C0.66 0 1.32 0 2 0 C2.20625 1.2375 2.4125 2.475 2.625 3.75 C3.76812679 9.06217745 6.1425789 13.47318098 8.7578125 18.203125 C10.03747202 21.08437096 10.26093764 22.89143856 10 26 C8.68 24.68 7.36 23.36 6 22 C5.83312552 24.41645782 5.83312552 24.41645782 6 27 C7.83883881 29.28728734 7.83883881 29.28728734 10.625 29.125 C11.40875 29.08375 12.1925 29.0425 13 29 C13.96063367 21.04046388 11.24385491 15.74643047 7.53125 8.94140625 C6 6 6 6 6 4 C6.66 4 7.32 4 8 4 C9.7265625 6.1171875 9.7265625 6.1171875 11.625 8.875 C12.25664063 9.77992187 12.88828125 10.68484375 13.5390625 11.6171875 C15 14 15 14 15 16 C15.66 16 16.32 16 17 16 C16.979375 15.030625 16.95875 14.06125 16.9375 13.0625 C17 10 17 10 18 9 C19.99958364 8.95919217 22.00045254 8.95745644 24 9 C30.95766605 22.39350714 31.13636199 38.52773419 27.08984375 52.9609375 C21.64200944 68.15238946 12.9472932 80.93672002 -2 88 C-8.89886593 91.09895582 -15.46798266 92.15089451 -23 92.25 C-24.7634375 92.28867188 -24.7634375 92.28867188 -26.5625 92.328125 C-30.33505664 91.96801732 -32.74346285 90.88640871 -36 89 C-35.67 85.37 -35.34 81.74 -35 78 C-34.67 78 -34.34 78 -34 78 C-33.67 80.97 -33.34 83.94 -33 87 C-32.01 87 -31.02 87 -30 87 C-30 84.69 -30 82.38 -30 80 C-29.67 80.66 -29.34 81.32 -29 82 C-27.515 81.505 -27.515 81.505 -26 81 C-25.01 81.33 -24.02 81.66 -23 82 C-23 77.71 -23 73.42 -23 69 C-20.04816899 71.95183101 -19.91336012 74.95511947 -19 79 C-18.34 79 -17.68 79 -17 79 C-17 79.99 -17 80.98 -17 82 C-15.515 81.505 -15.515 81.505 -14 81 C-13.34 75.72 -12.68 70.44 -12 65 C-11.01 65 -10.02 65 -9 65 C-8.34 67.97 -7.68 70.94 -7 74 C-6.01 74 -5.02 74 -4 74 C-4 72.35 -4 70.7 -4 69 C-3.34 68.67 -2.68 68.34 -2 68 C-2 64.04 -2 60.08 -2 56 C-1.34 55.67 -0.68 55.34 0 55 C0.91485573 52.19521805 0.91485573 52.19521805 1.625 48.9375 C2.01558594 47.28041016 2.01558594 47.28041016 2.4140625 45.58984375 C2.60742188 44.73519531 2.80078125 43.88054688 3 43 C7.49155941 47.14909447 10.77549254 52.44061494 11.3125 58.5625 C11.209375 59.366875 11.10625 60.17125 11 61 C10.34 61 9.68 61 9 61 C8.34 59.35 7.68 57.7 7 56 C7.495 59.465 7.495 59.465 8 63 C9.66611905 63.042721 11.33382885 63.04063832 13 63 C14.20781663 62.02529288 14.20781663 62.02529288 14.01953125 60.21484375 C13.24661604 51.71277642 9.65227434 45.73967245 4.953125 38.76171875 C4 37 4 37 4 34 C6.99332739 34.9977758 7.94766315 35.7522025 10 38 C8.78379415 34.98352894 8.78379415 34.98352894 7 32 C4.92309422 31.03955898 4.92309422 31.03955898 3 31 C2.34 33.31 1.68 35.62 1 38 C-1.31 37.67 -3.62 37.34 -6 37 C-5.70222656 35.78054687 -5.40445313 34.56109375 -5.09765625 33.3046875 C-3.76223846 27.29707233 -3.11213882 21.23601406 -2.4375 15.125 C-2.18907741 12.89811439 -1.93790486 10.67153333 -1.68359375 8.4453125 C-1.57587646 7.47094238 -1.46815918 6.49657227 -1.35717773 5.49267578 C-1 3 -1 3 0 0 Z " transform="translate(79,20)" style="fill: #3DBF03;"/><path d="M0 0 C0.24197853 8.75155666 -0.07090385 17.34484652 -0.875 26.0625 C-0.95347168 26.95412842 -1.03194336 27.84575684 -1.11279297 28.7644043 C-1.48617809 32.55594745 -1.91247605 35.75533076 -3.203125 39.36328125 C-4.26177925 41.93656344 -4.26177925 41.93656344 -3.2421875 44.1953125 C-2.56542969 45.15050781 -2.56542969 45.15050781 -1.875 46.125 C-1.22144531 47.08792969 -1.22144531 47.08792969 -0.5546875 48.0703125 C1.14447541 50.17932374 3.08491736 52.08491736 5 54 C5.33 48.72 5.66 43.44 6 38 C6.66 38 7.32 38 8 38 C8.66 40.31 9.32 42.62 10 45 C10.33 44.34 10.66 43.68 11 43 C12.485 43.495 12.485 43.495 14 44 C14.33 39.05 14.66 34.1 15 29 C16.32 29.33 17.64 29.66 19 30 C18.88088488 34.00203816 18.75658828 38.00388006 18.62768555 42.00561523 C18.58462706 43.3642958 18.54293435 44.72302041 18.50268555 46.08178711 C18.44427107 48.04552303 18.38038197 50.00909364 18.31640625 51.97265625 C18.27974854 53.15093994 18.24309082 54.32922363 18.20532227 55.54321289 C17.9956707 59.07288765 17.5478502 62.50818611 17 66 C16.01 66 15.02 66 14 66 C13.67 64.68 13.34 63.36 13 62 C12.34 64.31 11.68 66.62 11 69 C2.39935337 67.20673831 -7.12394776 59.1910149 -11.8984375 51.94140625 C-13.74638073 48.68457014 -15.47062714 45.41903068 -17 42 C-17.4125 41.0925 -17.825 40.185 -18.25 39.25 C-19 37 -19 37 -19 33 C-17.35 33 -15.7 33 -14 33 C-13.67 26.4 -13.34 19.8 -13 13 C-11.68 13.33 -10.36 13.66 -9 14 C-8.67 15.32 -8.34 16.64 -8 18 C-7.34 17.34 -6.68 16.68 -6 16 C-5.67 16.33 -5.34 16.66 -5 17 C-4.86722656 15.85660156 -4.73445313 14.71320312 -4.59765625 13.53515625 C-4.4194969 12.0442438 -4.24109918 10.55335982 -4.0625 9.0625 C-3.97548828 8.30775391 -3.88847656 7.55300781 -3.79882812 6.77539062 C-2.97848935 0 -2.97848935 0 0 0 Z " transform="translate(32,41)" style="fill: #03D43E;"/><path d="M0 0 C4.49155941 4.14909447 7.77549254 9.44061494 8.3125 15.5625 C8.209375 16.366875 8.10625 17.17125 8 18 C7.34 18 6.68 18 6 18 C5.34 16.35 4.68 14.7 4 13 C4.495 16.465 4.495 16.465 5 20 C6.65 20.33 8.3 20.66 10 21 C8.02 21.99 8.02 21.99 6 23 C6 23.66 6 24.32 6 25 C7.98 25.33 9.96 25.66 12 26 C12 26.66 12 27.32 12 28 C12.66 28.33 13.32 28.66 14 29 C5.30029064 39.71151715 -4.91052939 47.26122309 -19 49 C-21.33075531 49.13772645 -23.66538113 49.21928133 -26 49.25 C-27.175625 49.27578125 -28.35125 49.3015625 -29.5625 49.328125 C-33.33505664 48.96801732 -35.74346285 47.88640871 -39 46 C-38.67 42.37 -38.34 38.74 -38 35 C-37.67 35 -37.34 35 -37 35 C-36.67 37.97 -36.34 40.94 -36 44 C-35.01 44 -34.02 44 -33 44 C-33 41.69 -33 39.38 -33 37 C-32.67 37.66 -32.34 38.32 -32 39 C-30.515 38.505 -30.515 38.505 -29 38 C-28.01 38.33 -27.02 38.66 -26 39 C-26 34.71 -26 30.42 -26 26 C-23.04816899 28.95183101 -22.91336012 31.95511947 -22 36 C-21.34 36 -20.68 36 -20 36 C-20 36.99 -20 37.98 -20 39 C-18.515 38.505 -18.515 38.505 -17 38 C-16.34 32.72 -15.68 27.44 -15 22 C-14.01 22 -13.02 22 -12 22 C-11.34 24.97 -10.68 27.94 -10 31 C-9.01 31 -8.02 31 -7 31 C-7 29.35 -7 27.7 -7 26 C-6.34 25.67 -5.68 25.34 -5 25 C-5 21.04 -5 17.08 -5 13 C-4.34 12.67 -3.68 12.34 -3 12 C-2.08514427 9.19521805 -2.08514427 9.19521805 -1.375 5.9375 C-1.11460938 4.83277344 -0.85421875 3.72804688 -0.5859375 2.58984375 C-0.39257812 1.73519531 -0.19921875 0.88054688 0 0 Z " transform="translate(82,63)" style="fill: #04D73C;"/><path d="M0 0 C3.65316671 1.24976756 4.78065836 1.67098753 7 5 C7 5.99 7 6.98 7 8 C4.00667261 7.0022242 3.05233685 6.2477975 1 4 C4.25881949 10.78305416 4.25881949 10.78305416 8.1875 17.1875 C11.09170959 21.69403212 12.61516085 26.61734259 12 32 C10 34 10 34 7.5 34.3125 C6.675 34.209375 5.85 34.10625 5 34 C2.8480563 30.77208445 2.79913557 29.71599191 3 26 C3.66 25.67 4.32 25.34 5 25 C5.495 27.97 5.495 27.97 6 31 C6.66 31 7.32 31 8 31 C6.71383443 24.56917213 4.39374748 19.59579736 1 14 C0.81824219 14.78246094 0.63648437 15.56492187 0.44921875 16.37109375 C0.19785156 17.38300781 -0.05351563 18.39492187 -0.3125 19.4375 C-0.55613281 20.44683594 -0.79976562 21.45617187 -1.05078125 22.49609375 C-1.36402344 23.32238281 -1.67726563 24.14867188 -2 25 C-2.99 25.33 -3.98 25.66 -5 26 C-4.67 29.96 -4.34 33.92 -4 38 C-5.485 38.495 -5.485 38.495 -7 39 C-7 40.65 -7 42.3 -7 44 C-7.99 44 -8.98 44 -10 44 C-10.66 41.03 -11.32 38.06 -12 35 C-12.99 35 -13.98 35 -15 35 C-15.33 40.28 -15.66 45.56 -16 51 C-17.98 51.495 -17.98 51.495 -20 52 C-20 51.01 -20 50.02 -20 49 C-20.66 49 -21.32 49 -22 49 C-22.99 46.36 -23.98 43.72 -25 41 C-25.33 44.63 -25.66 48.26 -26 52 C-27.32 51.67 -28.64 51.34 -30 51 C-30 40.44 -30 29.88 -30 19 C-24.27927928 16.71171171 -24.27927928 16.71171171 -21 18 C-20.67 18.33 -20.34 18.66 -20 19 C-20.0859375 20.78515625 -20.0859375 20.78515625 -20.375 23.0625 C-20.52001953 24.27873047 -20.52001953 24.27873047 -20.66796875 25.51953125 C-20.87719976 27.08260998 -21.10626179 28.64328375 -21.36328125 30.19921875 C-22.03367585 34.43966655 -22.03243907 37.17423235 -20 41 C-19.67 41 -19.34 41 -19 41 C-18.34 31.76 -17.68 22.52 -17 13 C-16.01 12.67 -15.02 12.34 -14 12 C-13.35105763 14.06152389 -12.7059736 16.12426258 -12.0625 18.1875 C-11.70285156 19.33605469 -11.34320313 20.48460938 -10.97265625 21.66796875 C-10 25 -10 25 -9 30 C-9 22.41 -9 14.82 -9 7 C-5 6 -5 6 -3 7 C-2.690625 6.030625 -2.38125 5.06125 -2.0625 4.0625 C-1 1 -1 1 0 0 Z " transform="translate(82,50)" style="fill: #E1E1E1;"/><path d="M0 0 C0.35371296 3.65327414 0.43094385 5.4178972 -1.79296875 8.421875 C-2.97826172 9.57429688 -2.97826172 9.57429688 -4.1875 10.75 C-11.56344259 18.4964766 -14.59101405 26.69815767 -17 37 C-17.99 37 -18.98 37 -20 37 C-20 45.25 -20 53.5 -20 62 C-20.33 62 -20.66 62 -21 62 C-21 60.35 -21 58.7 -21 57 C-22.98 57 -24.96 57 -27 57 C-27.9212733 50.68482011 -28.21490346 44.50379681 -28.25 38.125 C-28.270625 37.19558594 -28.29125 36.26617187 -28.3125 35.30859375 C-28.3515056 28.31683912 -27.90678166 20.40795091 -23.1875 14.875 C-22.465625 14.25625 -21.74375 13.6375 -21 13 C-20.02270646 11.70155618 -19.06633192 10.38724648 -18.125 9.0625 C-13.12326968 2.2753419 -8.76486498 -1.752973 0 0 Z " transform="translate(39,17)" style="fill: #00CAC5;"/><path d="M0 0 C9.62171002 1.97829552 17.45729439 8.05916101 23 16 C23 16.66 23 17.32 23 18 C21.35 18.33 19.7 18.66 18 19 C17.67 20.98 17.34 22.96 17 25 C16.34 25 15.68 25 15 25 C13.52734375 23.13671875 13.52734375 23.13671875 11.9375 20.6875 C11.41027344 19.88699219 10.88304688 19.08648438 10.33984375 18.26171875 C9 16 9 16 8 13 C7.34 13 6.68 13 6 13 C6.5775 14.05058594 7.155 15.10117187 7.75 16.18359375 C15.2338018 30.18592195 15.2338018 30.18592195 14 38 C13 39 13 39 10.625 39.25 C8 39 8 39 6.1875 37.875 C4.50893894 35.22464043 4.79549762 33.06753576 5 30 C6.32 31.32 7.64 32.64 9 34 C8.77704076 28.98341704 7.4862366 25.84784479 4.9375 21.5 C2.30725192 16.94885475 1.30718087 14.19614349 2 9 C1.34 9 0.68 9 0 9 C-0.08040527 9.81154541 -0.16081055 10.62309082 -0.24365234 11.45922852 C-0.61417437 15.16101316 -0.99449558 18.86172867 -1.375 22.5625 C-1.50132813 23.83931641 -1.62765625 25.11613281 -1.7578125 26.43164062 C-2.38698116 32.48738902 -3.00527271 38.23263631 -5 44 C-5.66 43.67 -6.32 43.34 -7 43 C-6.97381592 42.34515625 -6.94763184 41.6903125 -6.9206543 41.015625 C-6.81587336 38.01066675 -6.75142059 35.00609401 -6.6875 32 C-6.64560547 30.97003906 -6.60371094 29.94007812 -6.56054688 28.87890625 C-6.46011962 22.57207459 -7.07491182 18.61342685 -10.91723633 13.5234375 C-12 12 -12 12 -12 10 C-9.13275314 10.57344937 -8.1385485 10.8614515 -6 13 C-5.34 10.03 -4.68 7.06 -4 4 C-2.68 4 -1.36 4 0 4 C0 2.68 0 1.36 0 0 Z " transform="translate(79,11)" style="fill: #00A7D0;"/><path d="M0 0 C0.66 0 1.32 0 2 0 C2.20625 1.2375 2.4125 2.475 2.625 3.75 C3.76812679 9.06217745 6.1425789 13.47318098 8.7578125 18.203125 C10.03747202 21.08437096 10.26093764 22.89143856 10 26 C8.68 24.68 7.36 23.36 6 22 C5.83312552 24.41645782 5.83312552 24.41645782 6 27 C7.83883881 29.28728734 7.83883881 29.28728734 10.625 29.125 C11.40875 29.08375 12.1925 29.0425 13 29 C13.96063367 21.04046388 11.24385491 15.74643047 7.53125 8.94140625 C6 6 6 6 6 4 C6.66 4 7.32 4 8 4 C16.08887428 13.16089376 18.595344 22.40713347 18.37109375 34.4375 C17.79684921 39.95024755 16.09502877 44.89336736 14 50 C13.34 50 12.68 50 12 50 C10.52313012 47.92111288 9.18604262 45.86716626 7.875 43.6875 C7.31619141 42.79514648 7.31619141 42.79514648 6.74609375 41.88476562 C4 37.38338484 4 37.38338484 4 34 C6.99332739 34.9977758 7.94766315 35.7522025 10 38 C8.78379415 34.98352894 8.78379415 34.98352894 7 32 C4.92309422 31.03955898 4.92309422 31.03955898 3 31 C2.34 33.31 1.68 35.62 1 38 C-1.31 37.67 -3.62 37.34 -6 37 C-5.70222656 35.78054687 -5.40445313 34.56109375 -5.09765625 33.3046875 C-3.76223846 27.29707233 -3.11213882 21.23601406 -2.4375 15.125 C-2.18907741 12.89811439 -1.93790486 10.67153333 -1.68359375 8.4453125 C-1.57587646 7.47094238 -1.46815918 6.49657227 -1.35717773 5.49267578 C-1 3 -1 3 0 0 Z " transform="translate(79,20)" style="fill: #0A0C0B;"/><path d="M0 0 C0.99 0.33 1.98 0.66 3 1 C2.855625 2.299375 2.71125 3.59875 2.5625 4.9375 C2.47226563 5.76121094 2.38203125 6.58492187 2.2890625 7.43359375 C2.10677746 9.05198928 1.91532337 10.66940307 1.7109375 12.28515625 C1.0594868 17.56190693 0.91559507 22.68248936 1 28 C2.65 27.67 4.3 27.34 6 27 C6 31 6 31 4.57421875 32.703125 C3.95160156 33.21359375 3.32898438 33.7240625 2.6875 34.25 C1.76517578 35.03117187 1.76517578 35.03117187 0.82421875 35.828125 C-1 37 -1 37 -4 37 C-4.33 35.68 -4.66 34.36 -5 33 C-5.66 34.32 -6.32 35.64 -7 37 C-10.875 36.125 -10.875 36.125 -12 35 C-12.08758003 33.00035018 -12.10696576 30.9976389 -12.09765625 28.99609375 C-12.09443359 27.78115234 -12.09121094 26.56621094 -12.08789062 25.31445312 C-12.07951172 24.03505859 -12.07113281 22.75566406 -12.0625 21.4375 C-12.05798828 20.15423828 -12.05347656 18.87097656 -12.04882812 17.54882812 C-12.03699545 14.36583978 -12.02051068 11.18294238 -12 8 C-10.10546875 8.296875 -10.10546875 8.296875 -8 9 C-5.97199169 12.90579378 -4.65891671 16.65114973 -4 21 C-2.12175109 19.12175109 -2.60897603 15.96064724 -2.4375 13.4375 C-2.35371094 12.23996094 -2.26992188 11.04242188 -2.18359375 9.80859375 C-2.12300781 8.88175781 -2.06242187 7.95492188 -2 7 C-3.65 7 -5.3 7 -7 7 C-5.65117186 2.95351557 -3.65173931 2.04497401 0 0 Z " transform="translate(64,23)" style="fill: #DCDCDC;"/><path d="M0 0 C0.24286397 8.7835803 -0.09206725 17.37896015 -0.9375 26.125 C-1.02435059 27.02500732 -1.11120117 27.92501465 -1.20068359 28.85229492 C-1.61826324 32.95129069 -2.07373517 36.977841 -3 41 C-3.99 41 -4.98 41 -6 41 C-6.66 39.68 -7.32 38.36 -8 37 C-8.33 38.98 -8.66 40.96 -9 43 C-9.99 43 -10.98 43 -12 43 C-13.03974499 39.58934861 -13.11508506 36.47735158 -13.09765625 32.921875 C-13.09443359 31.76171875 -13.09121094 30.6015625 -13.08789062 29.40625 C-13.07951172 28.1996875 -13.07113281 26.993125 -13.0625 25.75 C-13.05798828 24.52796875 -13.05347656 23.3059375 -13.04882812 22.046875 C-13.03704815 19.03120054 -13.02059853 16.01562502 -13 13 C-11.68 13.33 -10.36 13.66 -9 14 C-8.67 15.32 -8.34 16.64 -8 18 C-7.34 17.34 -6.68 16.68 -6 16 C-5.67 16.33 -5.34 16.66 -5 17 C-4.86722656 15.85660156 -4.73445313 14.71320312 -4.59765625 13.53515625 C-4.4194969 12.0442438 -4.24109918 10.55335982 -4.0625 9.0625 C-3.97548828 8.30775391 -3.88847656 7.55300781 -3.79882812 6.77539062 C-2.97848935 0 -2.97848935 0 0 0 Z " transform="translate(32,41)" style="fill: #EAE9EA;"/><path d="M0 0 C1.98 0 3.96 0 6 0 C11.43948674 10.82069326 11.56363917 20.13852684 11 32 C3.58268777 30.98854833 3.58268777 30.98854833 1 29 C0.4609375 26.53125 0.4609375 26.53125 0.375 23.5 C0.18363342 19.40279239 -0.2144736 15.67140052 -1.1875 11.6875 C-2.19621461 7.12987704 -1.69090952 4.32121323 0 0 Z " transform="translate(97,29)" style="fill: #01E160;"/><path d="M0 0 C1.32 0.33 2.64 0.66 4 1 C3.88088488 5.00203816 3.75658828 9.00388006 3.62768555 13.00561523 C3.58462706 14.3642958 3.54293435 15.72302041 3.50268555 17.08178711 C3.44427107 19.04552303 3.38038197 21.00909364 3.31640625 22.97265625 C3.26141968 24.74008179 3.26141968 24.74008179 3.20532227 26.54321289 C2.9956707 30.07288765 2.5478502 33.50818611 2 37 C1.01 37 0.02 37 -1 37 C-1.33 35.68 -1.66 34.36 -2 33 C-2.66 35.31 -3.32 37.62 -4 40 C-5.32 39.67 -6.64 39.34 -8 39 C-9.3302664 29.02300197 -9.09502917 19.04385176 -9 9 C-8.34 9 -7.68 9 -7 9 C-6.34 11.31 -5.68 13.62 -5 16 C-4.67 15.34 -4.34 14.68 -4 14 C-3.01 14.33 -2.02 14.66 -1 15 C-0.67 10.05 -0.34 5.1 0 0 Z " transform="translate(47,70)" style="fill: #EDEDED;"/><path d="M0 0 C0.38999597 3.8108178 0.33970688 5.51630214 -1.8984375 8.703125 C-2.71570313 9.54359375 -3.53296875 10.3840625 -4.375 11.25 C-5.18710937 12.10078125 -5.99921875 12.9515625 -6.8359375 13.828125 C-8.22275549 15.21994955 -9.61067647 16.61067647 -11 18 C-12.32 17.34 -13.64 16.68 -15 16 C-15.598125 16.515625 -16.19625 17.03125 -16.8125 17.5625 C-17.534375 18.036875 -18.25625 18.51125 -19 19 C-19.99 18.67 -20.98 18.34 -22 18 C-23.32 19.65 -24.64 21.3 -26 23 C-25.55225423 18.07479657 -24.58942458 16.29839016 -21 13 C-20.02448026 11.70022299 -19.06771628 10.3862617 -18.125 9.0625 C-13.12326968 2.2753419 -8.76486498 -1.752973 0 0 Z " transform="translate(39,17)" style="fill: #0701DB;"/><path d="M0 0 C1.32 0.33 2.64 0.66 4 1 C3 4 3 4 1 5 C0.46884275 6.96104135 0.46884275 6.96104135 0.21875 9.34765625 C0.09991455 10.25628418 -0.0189209 11.16491211 -0.14135742 12.10107422 C-0.25970947 13.07834473 -0.37806152 14.05561523 -0.5 15.0625 C-0.62673096 16.05008301 -0.75346191 17.03766602 -0.8840332 18.05517578 C-1.26462231 21.0357742 -1.6330476 24.01769606 -2 27 C-2.21146982 28.67327455 -2.4236469 30.34645995 -2.63671875 32.01953125 C-3.10089731 35.67851416 -3.5541437 39.338733 -4 43 C-4.99 43 -5.98 43 -7 43 C-6.97381592 42.34515625 -6.94763184 41.6903125 -6.9206543 41.015625 C-6.81587336 38.01066675 -6.75142059 35.00609401 -6.6875 32 C-6.64560547 30.97003906 -6.60371094 29.94007812 -6.56054688 28.87890625 C-6.46011962 22.57207459 -7.07491182 18.61342685 -10.91723633 13.5234375 C-12 12 -12 12 -12 10 C-9.13275314 10.57344937 -8.1385485 10.8614515 -6 13 C-5.34 10.03 -4.68 7.06 -4 4 C-2.68 4 -1.36 4 0 4 C0 2.68 0 1.36 0 0 Z " transform="translate(79,11)" style="fill: #E3E3E3;"/><path d="M0 0 C0.99 0.33 1.98 0.66 3 1 C3.1050173 11.39671302 3.02472362 21.64297197 2 32 C1.01 32 0.02 32 -1 32 C-1 28.7 -1 25.4 -1 22 C-1.66 22 -2.32 22 -3 22 C-3.33 28.27 -3.66 34.54 -4 41 C-4.99 40.67 -5.98 40.34 -7 40 C-7.14268634 32.04424591 -6.71791325 24.23379958 -6 16.3125 C-5.90460937 15.21744141 -5.80921875 14.12238281 -5.7109375 12.99414062 C-5.47817635 10.32902543 -5.2411367 7.66436814 -5 5 C-4.34 5 -3.68 5 -3 5 C-2.67 9.29 -2.34 13.58 -2 18 C-1.34 12.06 -0.68 6.12 0 0 Z " transform="translate(39,38)" style="fill: #F2F2F2;"/><path d="M0 0 C0.33 1.65 0.66 3.3 1 5 C-2.9217044 6.78794403 -6.41336611 7.37694996 -10.6875 7.8125 C-16.5397198 8.56861663 -20.92731043 10.01991497 -26.01171875 12.9765625 C-28 14 -28 14 -31 14 C-30.1094096 8.87065024 -26.92483044 6.17980392 -23 3 C-16.24294326 -1.40209164 -7.71896862 -0.27136999 0 0 Z " transform="translate(78,10)" style="fill: #0030CE;"/><path d="M0 0 C3.16115776 1.36983503 3.9927092 1.9890638 6 5 C6.25878906 7.06542969 6.25878906 7.06542969 6.265625 9.421875 C6.26820312 10.28296875 6.27078125 11.1440625 6.2734375 12.03125 C6.26570313 12.9284375 6.25796875 13.825625 6.25 14.75 C6.25773437 15.63171875 6.26546875 16.5134375 6.2734375 17.421875 C6.2578201 22.66932108 5.70938995 27.03462921 4 32 C2.68 32 1.36 32 0 32 C-1.69289021 28.61421959 -1.1448601 24.78378715 -1.125 21.0625 C-1.12209961 19.7799231 -1.12209961 19.7799231 -1.11914062 18.47143555 C-1.07693311 12.27455125 -0.77431926 6.15307271 0 0 Z " transform="translate(44,34)" style="fill: #B6B6B6;"/><path d="M0 0 C2.625 -0.1875 2.625 -0.1875 5 0 C5.66 1.32 6.32 2.64 7 4 C5.68 4.33 4.36 4.66 3 5 C3.53820715 9.59860539 4.78990003 12.79918516 7.0625 16.8125 C9.92433637 22.3033918 10.70340804 25.87030139 10 32 C9 33 9 33 6.625 33.25 C4 33 4 33 2.1875 31.875 C0.50893894 29.22464043 0.79549762 27.06753576 1 24 C2.32 25.32 3.64 26.64 5 28 C4.77704076 22.98341704 3.4862366 19.84784479 0.9375 15.5 C-1.68202887 10.9268177 -2.86960547 8.21763281 -2 3 C-1.34 2.01 -0.68 1.02 0 0 Z " transform="translate(83,17)" style="fill: #ECECEC;"/><path d="M0 0 C2.31 0.33 4.62 0.66 7 1 C6.84722071 7.65284383 5.73762585 12.34943834 2.15625 17.9921875 C0.9964931 20.00608969 0.44763832 21.73128762 0 24 C-0.66 24 -1.32 24 -2 24 C-2 23.34 -2 22.68 -2 22 C-3.98 21.67 -5.96 21.34 -8 21 C-8.33 20.01 -8.66 19.02 -9 18 C-7.35 18 -5.7 18 -4 18 C-3.22312637 12.39313469 -3.22312637 12.39313469 -3.125 6.75 C-2.97872732 3.53200112 -2.15129164 2.33056594 0 0 Z " transform="translate(96,67)" style="fill: #4DDB04;"/><path d="M0 0 C4.49155941 4.14909447 7.77549254 9.44061494 8.3125 15.5625 C8.1578125 16.7690625 8.1578125 16.7690625 8 18 C7.34 18 6.68 18 6 18 C5.34 16.35 4.68 14.7 4 13 C4.020625 13.969375 4.04125 14.93875 4.0625 15.9375 C3.32249786 21.76203301 -1.85294081 25.30534727 -6 29 C-6.33 28.01 -6.66 27.02 -7 26 C-6.34 25.67 -5.68 25.34 -5 25 C-5 21.04 -5 17.08 -5 13 C-4.34 12.67 -3.68 12.34 -3 12 C-2.08514427 9.19521805 -2.08514427 9.19521805 -1.375 5.9375 C-1.11460938 4.83277344 -0.85421875 3.72804688 -0.5859375 2.58984375 C-0.39257812 1.73519531 -0.19921875 0.88054688 0 0 Z " transform="translate(82,63)" style="fill: #0B0F0B;"/><path d="M0 0 C0.66 0.66 1.32 1.32 2 2 C4.57061311 2.64767793 4.57061311 2.64767793 7 3 C5.02 3.99 5.02 3.99 3 5 C3 5.66 3 6.32 3 7 C5.97 7.495 5.97 7.495 9 8 C9 8.66 9 9.32 9 10 C9.66 10.33 10.32 10.66 11 11 C9.35 12.65 7.7 14.3 6 16 C6 13 6 13 7 11 C5.88625 10.71125 4.7725 10.4225 3.625 10.125 C0 9 0 9 -2 7 C-2.94875 7.763125 -3.8975 8.52625 -4.875 9.3125 C-5.67550781 9.95638672 -5.67550781 9.95638672 -6.4921875 10.61328125 C-8.25292107 12.12270545 -8.25292107 12.12270545 -10 15 C-13.23349228 16.85753812 -15.24413583 18 -19 18 C-18.67 13.38 -18.34 8.76 -18 4 C-17.01 4 -16.02 4 -15 4 C-14.34 6.97 -13.68 9.94 -13 13 C-12.01 13 -11.02 13 -10 13 C-9.74347656 12.41476563 -9.48695312 11.82953125 -9.22265625 11.2265625 C-7.89437838 8.80765392 -6.43475199 7.26801128 -4.4375 5.375 C-1.85984611 2.95478041 -1.85984611 2.95478041 0 0 Z " transform="translate(85,81)" style="fill: #23D51D;"/><path d="M0 0 C1.98 0 3.96 0 6 0 C9.32797915 6.28453206 10.45164525 10.88658735 10 18 C6.892027 19.035991 5.91424851 19.33222789 3 18 C2.0234375 15.75 2.0234375 15.75 1.375 13 C0.96925914 11.3197555 0.52079122 9.64821835 0 8 C-0.66 7.67 -1.32 7.34 -2 7 C-1.34 4.69 -0.68 2.38 0 0 Z " transform="translate(97,29)" style="fill: #00D7CE;"/><path d="M0 0 C1 2 1 2 0.5 3.875 C-0.07450248 6.31663556 0.38328683 7.61023645 1 10 C0.67 10.99 0.34 11.98 0 13 C-0.1464714 14.55266653 -0.24694074 16.10995662 -0.31640625 17.66796875 C-0.35830078 18.56064453 -0.40019531 19.45332031 -0.44335938 20.37304688 C-0.50233398 21.76620117 -0.50233398 21.76620117 -0.5625 23.1875 C-0.60568359 24.12787109 -0.64886719 25.06824219 -0.69335938 26.03710938 C-0.79938665 28.35792854 -0.90145029 30.67885325 -1 33 C0.32 33 1.64 33 3 33 C3 26.73 3 20.46 3 14 C4.32 14 5.64 14 7 14 C6.01 14.33 5.02 14.66 4 15 C4 23.25 4 31.5 4 40 C3.67 40 3.34 40 3 40 C3 38.35 3 36.7 3 35 C1.02 35 -0.96 35 -3 35 C-3.95428573 28.55666278 -4.18314894 22.25918718 -4.1875 15.75 C-4.19974609 14.7703125 -4.21199219 13.790625 -4.22460938 12.78125 C-4.22654297 11.83765625 -4.22847656 10.8940625 -4.23046875 9.921875 C-4.23457764 9.07206055 -4.23868652 8.22224609 -4.24291992 7.34667969 C-3.97681252 4.77600197 -3.37743129 3.17651707 -2 1 C-1.34 0.67 -0.68 0.34 0 0 Z " transform="translate(15,39)" style="fill: #0E9588;"/><path d="M0 0 C1.32 0.66 2.64 1.32 4 2 C3.54738642 3.43931117 3.08767021 4.87638999 2.625 6.3125 C2.36976562 7.11300781 2.11453125 7.91351563 1.8515625 8.73828125 C1 11 1 11 -1 14 C-3.64 13.67 -6.28 13.34 -9 13 C-9.33 13.99 -9.66 14.98 -10 16 C-9.70703125 13.98177083 -9.4140625 11.96354167 -9.12109375 9.9453125 C-8.8315703 7.91859333 -8.8315703 7.91859333 -10 6 C-9.01 4.68 -8.02 3.36 -7 2 C-6.01 2.33 -5.02 2.66 -4 3 C-1.80961577 1.62831762 -1.80961577 1.62831762 0 0 Z " transform="translate(24,32)" style="fill: #00AAD6;"/><path d="M0 0 C0 3.28492955 -2.74810536 4.74810536 -5 7 C-5.680625 8.093125 -6.36125 9.18625 -7.0625 10.3125 C-7.701875 11.199375 -8.34125 12.08625 -9 13 C-10.32 13 -11.64 13 -13 13 C-13 13.66 -13 14.32 -13 15 C-12.01 15.33 -11.02 15.66 -10 16 C-12.3125 18.0625 -12.3125 18.0625 -15 20 C-15.99 19.67 -16.98 19.34 -18 19 C-19.32 20.65 -20.64 22.3 -22 24 C-21.55225423 19.07479657 -20.58942458 17.29839016 -17 14 C-16.02448026 12.70022299 -15.06771628 11.3862617 -14.125 10.0625 C-10.62884519 5.31835069 -6.40076056 0 0 0 Z " transform="translate(35,16)" style="fill: #0501C2;"/><path d="M0 0 C0.99 0.33 1.98 0.66 3 1 C2.30437524 7.51899776 1.49568388 14.0107829 0.5625 20.5 C0.44068359 21.40492187 0.31886719 22.30984375 0.19335938 23.2421875 C0.06896484 24.10070312 -0.05542969 24.95921875 -0.18359375 25.84375 C-0.29243896 26.61912109 -0.40128418 27.39449219 -0.51342773 28.19335938 C-0.67399658 28.78955078 -0.83456543 29.38574219 -1 30 C-1.66 30.33 -2.32 30.66 -3 31 C-3.14525497 22.94641862 -2.71413279 15.02124152 -2 7 C-3.65 7 -5.3 7 -7 7 C-5.65117186 2.95351557 -3.65173931 2.04497401 0 0 Z " transform="translate(64,23)" style="fill: #E0E0E0;"/><path d="M0 0 C0.66 0.33 1.32 0.66 2 1 C2.05447822 3.52113092 2.09389852 6.0410585 2.125 8.5625 C2.14175781 9.26697266 2.15851562 9.97144531 2.17578125 10.69726562 C2.22022044 15.51891822 1.52768004 19.42297438 0 24 C-1.32 24 -2.64 24 -4 24 C-5.53266582 20.93466836 -5.10276471 17.73245728 -5.0625 14.375 C-5.05798828 13.66859375 -5.05347656 12.9621875 -5.04882812 12.234375 C-5.03703875 10.48954725 -5.01910324 8.744763 -5 7 C-4.34 7 -3.68 7 -3 7 C-3 10.63 -3 14.26 -3 18 C-2.34 18 -1.68 18 -1 18 C-0.505 9.09 -0.505 9.09 0 0 Z " transform="translate(48,42)" style="fill: #F5F5F5;"/><path d="M0 0 C0.33 0 0.66 0 1 0 C0.89035323 4.43801996 0.75966846 8.87517436 0.625 13.3125 C0.57859375 15.20645508 0.57859375 15.20645508 0.53125 17.13867188 C0.49257812 18.34716797 0.45390625 19.55566406 0.4140625 20.80078125 C0.3826416 21.91622314 0.3512207 23.03166504 0.31884766 24.1809082 C0 27 0 27 -2 30 C-4.68278325 23.99056551 -5.48052006 20.45083741 -4 14 C-3.505 13.195625 -3.01 12.39125 -2.5 11.5625 C-0.3435817 7.87861874 -0.26550936 4.20237233 0 0 Z " transform="translate(64,64)" style="fill: #222222;"/><path d="M0 0 C0.33 0 0.66 0 1 0 C1.66 2.97 2.32 5.94 3 9 C3.33 6.69 3.66 4.38 4 2 C4.33 2 4.66 2 5 2 C5.33 3.65 5.66 5.3 6 7 C7.65 6.67 9.3 6.34 11 6 C11 10 11 10 9.57421875 11.703125 C8.95160156 12.21359375 8.32898438 12.7240625 7.6875 13.25 C7.07261719 13.77078125 6.45773438 14.2915625 5.82421875 14.828125 C4 16 4 16 1 16 C0.67 10.72 0.34 5.44 0 0 Z " transform="translate(59,44)" style="fill: #CBCBCB;"/><path d="M0 0 C0.33 0 0.66 0 1 0 C1.33 3.96 1.66 7.92 2 12 C4.97 12.99 7.94 13.98 11 15 C10.67 16.32 10.34 17.64 10 19 C6.04 19 2.08 19 -2 19 C-1.34 12.73 -0.68 6.46 0 0 Z " transform="translate(97,46)" style="fill: #0FC43B;"/><path d="M0 0 C0.66 0 1.32 0 2 0 C4.03435531 3.72965139 5 5.66905042 5 10 C6.98 10 8.96 10 11 10 C11.33 8.35 11.66 6.7 12 5 C12.33 5 12.66 5 13 5 C13 7.31 13 9.62 13 12 C12.2575 12.28875 11.515 12.5775 10.75 12.875 C8.05487538 13.93728528 8.05487538 13.93728528 5.75 15.125 C4 16 4 16 3 16 C2.01 10.72 1.02 5.44 0 0 Z " transform="translate(95,37)" style="fill: #00D47C;"/><path d="M0 0 C4.67403719 1.03867493 8.13368513 3.23834652 12 6 C8.8745041 8.64465038 5.91211733 9.84414715 2 11 C2.33 10.01 2.66 9.02 3 8 C4.32 8 5.64 8 7 8 C6.34 7.01 5.68 6.02 5 5 C2.41619823 4.74969023 2.41619823 4.74969023 0 5 C-0.33 5.66 -0.66 6.32 -1 7 C-1.99 7 -2.98 7 -4 7 C-3.6875 4.625 -3.6875 4.625 -3 2 C-2.01 1.34 -1.02 0.68 0 0 Z " transform="translate(83,13)" style="fill: #153D8E;"/><path d="M0 0 C0.93065133 2.60582371 1.14917407 3.64198224 0.0625 6.25 C-0.4634375 7.11625 -0.4634375 7.11625 -1 8 C-1.66 8 -2.32 8 -3 8 C-3.66 12.62 -4.32 17.24 -5 22 C-5.66 21.67 -6.32 21.34 -7 21 C-7.31063265 14.47671437 -6.93661134 8.93465807 -4 3 C-1.8125 0.9375 -1.8125 0.9375 0 0 Z " transform="translate(22,45)" style="fill: #00DDD5;"/><path d="M0 0 C0.99 0.33 1.98 0.66 3 1 C3.20852314 7.40629424 3.1583195 12.92972642 1 19 C0.34 18.67 -0.32 18.34 -1 18 C-1.02707139 15.75006641 -1.04642829 13.50003905 -1.0625 11.25 C-1.07410156 9.99703125 -1.08570312 8.7440625 -1.09765625 7.453125 C-1.02021027 4.71463499 -0.82780815 2.58119707 0 0 Z " transform="translate(73,36)" style="fill: #F8F8F8;"/><path d="M0 0 C2 1.8125 2 1.8125 4 4 C4 4.99 4 5.98 4 7 C6.02045442 6.39816251 8.02111039 5.72693904 10 5 C10.33 4.34 10.66 3.68 11 3 C11 5.97 11 8.94 11 12 C7.892027 13.035991 6.91424851 13.33222789 4 12 C3.0234375 9.75 3.0234375 9.75 2.375 7 C1.96925914 5.3197555 1.52079122 3.64821835 1 2 C0.34 1.67 -0.32 1.34 -1 1 C-0.67 0.67 -0.34 0.34 0 0 Z " transform="translate(96,35)" style="fill: #00D8A6;"/><path d="M0 0 C1.32 0.66 2.64 1.32 4 2 C3.34 3.98 2.68 5.96 2 8 C1.13375 7.62875 0.2675 7.2575 -0.625 6.875 C-4.55697326 5.85559952 -6.32937509 6.42687504 -10 8 C-9.3125 5.5625 -9.3125 5.5625 -8 3 C-5.5625 2.3125 -5.5625 2.3125 -3 2 C-2.01 1.34 -1.02 0.68 0 0 Z " transform="translate(24,32)" style="fill: #0061BE;"/><path d="M0 0 C0.99 0 1.98 0 3 0 C4.15104816 2.30209632 4.26555901 3.87405536 4.375 6.4375 C4.42398438 7.21996094 4.47296875 8.00242187 4.5234375 8.80859375 C4.35070312 9.53175781 4.17796875 10.25492188 4 11 C1.525 12.485 1.525 12.485 -1 14 C-0.67 9.38 -0.34 4.76 0 0 Z " transform="translate(67,85)" style="fill: #101611;"/><path d="M0 0 C0.66 0.99 1.32 1.98 2 3 C-0.46932626 5.53987844 -2.90636174 7.92596045 -5.6875 10.125 C-8.19153669 11.96561073 -8.19153669 11.96561073 -10 15 C-13 16.75 -13 16.75 -16 18 C-16.66 17.67 -17.32 17.34 -18 17 C-16.68 16.34 -15.36 15.68 -14 15 C-14 13.35 -14 11.7 -14 10 C-13.67 10.99 -13.34 11.98 -13 13 C-12.01 13 -11.02 13 -10 13 C-9.74347656 12.41476563 -9.48695312 11.82953125 -9.22265625 11.2265625 C-7.89437838 8.80765392 -6.43475199 7.26801128 -4.4375 5.375 C-1.85984611 2.95478041 -1.85984611 2.95478041 0 0 Z " transform="translate(85,81)" style="fill: #207835;"/><path d="M0 0 C0.80050781 0.12761719 1.60101563 0.25523438 2.42578125 0.38671875 C3.23402344 0.50660156 4.04226562 0.62648438 4.875 0.75 C5.48988281 0.85699219 6.10476562 0.96398437 6.73828125 1.07421875 C7.06828125 2.06421875 7.39828125 3.05421875 7.73828125 4.07421875 C7.07828125 4.07421875 6.41828125 4.07421875 5.73828125 4.07421875 C5.40828125 4.73421875 5.07828125 5.39421875 4.73828125 6.07421875 C4.14015625 5.74421875 3.54203125 5.41421875 2.92578125 5.07421875 C0.68441654 3.86633887 0.68441654 3.86633887 -2.26171875 4.07421875 C-4.46314207 6.51328935 -4.46314207 6.51328935 -6.26171875 9.07421875 C-5.65516137 3.61520236 -5.65516137 3.61520236 -4.01171875 1.35546875 C-2.26171875 0.07421875 -2.26171875 0.07421875 0 0 Z " transform="translate(98.26171875,63.92578125)" style="fill: #35B20A;"/><path d="M0 0 C0.33 0 0.66 0 1 0 C1 5.94 1 11.88 1 18 C0.01 17.67 -0.98 17.34 -2 17 C-2.3690205 5.47835991 -2.3690205 5.47835991 0 0 Z " transform="translate(34,61)" style="fill: #EAEAEA;"/><path d="M0 0 C2.95183101 2.95183101 3.08663988 5.95511947 4 10 C4.66 10 5.32 10 6 10 C6 10.99 6 11.98 6 13 C4.02 13 2.04 13 0 13 C0 8.71 0 4.42 0 0 Z " transform="translate(56,89)" style="fill: #0E1F11;"/><path d="M0 0 C1.8125 2.0625 1.8125 2.0625 3 4 C0.03 3.67 -2.94 3.34 -6 3 C-6.33 4.32 -6.66 5.64 -7 7 C-8.32 5.68 -9.64 4.36 -11 3 C-10 1 -10 1 -7.75 -0.1875 C-4.59920721 -1.11841605 -3.07298348 -1.13215181 0 0 Z " transform="translate(97,21)" style="fill: #0069BF;"/><path d="M0 0 C1.98 0.66 3.96 1.32 6 2 C4.35 3.65 2.7 5.3 1 7 C0.01 6.67 -0.98 6.34 -2 6 C-3.32 7.65 -4.64 9.3 -6 11 C-5.62671065 5.64951939 -4.0042343 3.49087093 0 0 Z " transform="translate(19,29)" style="fill: #00349F;"/><path d="M0 0 C3.26946116 0.29722374 5.07008236 1.41234219 7.75 3.25 C4.75 4.25 4.75 4.25 1.75 4.25 C-0.43777466 6.1875006 -0.43777466 6.1875006 -2.25 8.25 C-2.63063221 5.9239143 -2.96269945 3.58944736 -3.25 1.25 C-2.25 0.25 -2.25 0.25 0 0 Z " transform="translate(93.25,22.75)" style="fill: #0087CB;"/><path d="M0 0 C0.33 0 0.66 0 1 0 C1.10414253 5.75098214 1.20116938 11.35450392 0 17 C-0.66 17.33 -1.32 17.66 -2 18 C-2.20852314 11.59370576 -2.1583195 6.07027358 0 0 Z " transform="translate(63,36)" style="fill: #F6F6F6;"/><path d="M0 0 C0.59167969 0.21269531 1.18335937 0.42539062 1.79296875 0.64453125 C0.76171875 1.16015625 -0.26953125 1.67578125 -1.33203125 2.20703125 C-7.59803581 5.78941366 -11.41315136 11.6618745 -15.20703125 17.64453125 C-15.53703125 16.98453125 -15.86703125 16.32453125 -16.20703125 15.64453125 C-5.46290706 -0.87986645 -5.46290706 -0.87986645 0 0 Z " transform="translate(31.20703125,16.35546875)" style="fill: #00054E;"/><path d="M0 0 C1.65 0 3.3 0 5 0 C5 2.64 5 5.28 5 8 C4.01 8.33 3.02 8.66 2 9 C0.50178941 5.62902617 0 3.79557881 0 0 Z " transform="translate(13,74)" style="fill: #00D16A;"/><path d="M0 0 C0 0.99 0 1.98 0 3 C-0.66 2.67 -1.32 2.34 -2 2 C-1.34 1.34 -0.68 0.68 0 0 Z M-4 3 C-3.34 3.33 -2.68 3.66 -2 4 C-3.98 6.97 -5.96 9.94 -8 13 C-8.99 12.67 -9.98 12.34 -11 12 C-6.85714286 5.57142857 -6.85714286 5.57142857 -4 3 Z " transform="translate(30,17)" style="fill: #0305A1;"/><path d="M0 0 C0.66 0 1.32 0 2 0 C3.35439668 2.70879335 3.06501451 5.00933268 3 8 C2.67 8 2.34 8 2 8 C1.67 11.96 1.34 15.92 1 20 C0.67 20 0.34 20 0 20 C0 13.4 0 6.8 0 0 Z " transform="translate(38,79)" style="fill: #CCCECD;"/><path d="M0 0 C0.99 0 1.98 0 3 0 C3 3.3 3 6.6 3 10 C2.34 10 1.68 10 1 10 C0.67 10.66 0.34 11.32 0 12 C0 8.04 0 4.08 0 0 Z " transform="translate(19,54)" style="fill: #FAF9F9;"/><path d="M0 0 C0.33 0 0.66 0 1 0 C1 2.97 1 5.94 1 9 C-0.65 9.33 -2.3 9.66 -4 10 C-3.67 7.36 -3.34 4.72 -3 2 C-2.34 2.33 -1.68 2.66 -1 3 C-0.67 2.01 -0.34 1.02 0 0 Z " transform="translate(17,63)" style="fill: #00D9AA;"/><path d="M0 0 C3.64553172 1.2808625 5.16671013 2.16671013 8 5 C4.7 6.32 1.4 7.64 -2 9 C-1.67 8.01 -1.34 7.02 -1 6 C0.32 6 1.64 6 3 6 C2.01 4.02 1.02 2.04 0 0 Z " transform="translate(87,15)" style="fill: #1C559E;"/><path d="M0 0 C2.64 0.33 5.28 0.66 8 1 C8.33 2.65 8.66 4.3 9 6 C8.34 6 7.68 6 7 6 C7 5.34 7 4.68 7 4 C4.03 3.505 4.03 3.505 1 3 C0.67 2.01 0.34 1.02 0 0 Z " transform="translate(87,85)" style="fill: #3AE609;"/><path d="M0 0 C0.66 0 1.32 0 2 0 C1.46884894 4.51478398 -0.36620292 7.34666857 -3 11 C-3.75 9.4375 -3.75 9.4375 -4 7 C-2.86915563 4.49713591 -1.47860484 2.32992278 0 0 Z " transform="translate(100,80)" style="fill: #42CC01;"/><path d="M0 0 C0.66 0 1.32 0 2 0 C4.03435531 3.72965139 5 5.66905042 5 10 C4.01 9.67 3.02 9.34 2 9 C1.26953125 6.93359375 1.26953125 6.93359375 0.8125 4.4375 C0.65394531 3.61121094 0.49539062 2.78492188 0.33203125 1.93359375 C0.16767578 0.97646484 0.16767578 0.97646484 0 0 Z " transform="translate(95,37)" style="fill: #00BB8E;"/><path d="M0 0 C2.125 0.9375 2.125 0.9375 4 2 C3.67 3.32 3.34 4.64 3 6 C0.525 5.01 0.525 5.01 -2 4 C-2 3.01 -2 2.02 -2 1 C-1.34 0.67 -0.68 0.34 0 0 Z " transform="translate(24,32)" style="fill: #0042DF;"/><path d="M0 0 C0.66 0.33 1.32 0.66 2 1 C2 2.32 2 3.64 2 5 C2.99 5.33 3.98 5.66 5 6 C4.38125 6.12375 3.7625 6.2475 3.125 6.375 C0.80879168 6.87197356 0.80879168 6.87197356 -1 9 C-1.80967438 6.08517222 -2.21845993 4.53886783 -1.0625 1.6875 C-0.711875 1.130625 -0.36125 0.57375 0 0 Z " transform="translate(18,79)" style="fill: #23B750;"/><path d="M0 0 C2.97 0.33 5.94 0.66 9 1 C9.33 1.99 9.66 2.98 10 4 C6.7 3.34 3.4 2.68 0 2 C0 1.34 0 0.68 0 0 Z " transform="translate(96,64)" style="fill: #32DA19;"/><path d="M0 0 C5.75 0.875 5.75 0.875 8 2 C7.34 3.32 6.68 4.64 6 6 C5.01 5.34 4.02 4.68 3 4 C3 3.34 3 2.68 3 2 C2.01 2 1.02 2 0 2 C0 1.34 0 0.68 0 0 Z " transform="translate(22,29)" style="fill: #031BD9;"/><path d="M0 0 C0.33 1.32 0.66 2.64 1 4 C1.94875 4.12375 2.8975 4.2475 3.875 4.375 C7 5 7 5 9 7 C5.7 7 2.4 7 -1 7 C-0.67 4.69 -0.34 2.38 0 0 Z " transform="translate(96,58)" style="fill: #1EBB22;"/><path d="M0 0 C1.4540625 0.0309375 1.4540625 0.0309375 2.9375 0.0625 C2.9375 0.7225 2.9375 1.3825 2.9375 2.0625 C1.4834375 2.495625 1.4834375 2.495625 0 2.9375 C-3.16914203 3.70464682 -3.16914203 3.70464682 -4.0625 6.0625 C-4.105221 4.39638095 -4.10313832 2.72867115 -4.0625 1.0625 C-3.0625 0.0625 -3.0625 0.0625 0 0 Z " transform="translate(100.0625,28.9375)" style="fill: #00C1D3;"/><path d="M0 0 C0.66 0.99 1.32 1.98 2 3 C-2.82142857 8.22321429 -2.82142857 8.22321429 -7 9 C-6.57847656 8.51789063 -6.15695313 8.03578125 -5.72265625 7.5390625 C-5.17480469 6.90742187 -4.62695312 6.27578125 -4.0625 5.625 C-3.51722656 4.99851562 -2.97195312 4.37203125 -2.41015625 3.7265625 C-0.93041376 2.04367666 -0.93041376 2.04367666 0 0 Z " transform="translate(85,81)" style="fill: #0D7617;"/><path d="M0 0 C0.99 0.33 1.98 0.66 3 1 C2.34 2.98 1.68 4.96 1 7 C0.34 7 -0.32 7 -1 7 C-1.33 7.99 -1.66 8.98 -2 10 C-1.54177532 6.53058454 -1.10868317 3.32604951 0 0 Z " transform="translate(16,38)" style="fill: #0096B1;"/><path d="M0 0 C1.32 0.33 2.64 0.66 4 1 C3 4 3 4 0.9375 5.1875 C0.298125 5.455625 -0.34125 5.72375 -1 6 C-1.99 5.34 -2.98 4.68 -4 4 C-2.68 4 -1.36 4 0 4 C0 2.68 0 1.36 0 0 Z " transform="translate(79,11)" style="fill: #8995B0;"/><path d="M0 0 C2.475 0.99 2.475 0.99 5 2 C4.67 3.32 4.34 4.64 4 6 C3.67 5.34 3.34 4.68 3 4 C1.35636866 3.27840576 -0.31050386 2.60648579 -2 2 C-1.34 1.34 -0.68 0.68 0 0 Z " transform="translate(20,37)" style="fill: #0080D8;"/><path d="M0 0 C0 0.66 0 1.32 0 2 C-2.31 2 -4.62 2 -7 2 C-7 1.34 -7 0.68 -7 0 C-4.3333581 -1.33332095 -2.83319697 -0.67102033 0 0 Z " transform="translate(73,15)" style="fill: #002DC0;"/><path d="M0 0 C0 1.65 0 3.3 0 5 C-0.99 5.33 -1.98 5.66 -3 6 C-3.33 4.35 -3.66 2.7 -4 1 C-1 0 -1 0 0 0 Z " transform="translate(18,77)" style="fill: #00DD55;"/><path d="M0 0 C0.99 0.33 1.98 0.66 3 1 C3.6875 3.0625 3.6875 3.0625 4 5 C2.68 5.33 1.36 5.66 0 6 C0 4.02 0 2.04 0 0 Z " transform="translate(98,47)" style="fill: #00DA6F;"/><path d="M0 0 C0.33 0.66 0.66 1.32 1 2 C1.66 2 2.32 2 3 2 C3 3.65 3 5.3 3 7 C2.34 7 1.68 7 1 7 C0.34 5.02 -0.32 3.04 -1 1 C-0.67 0.67 -0.34 0.34 0 0 Z " transform="translate(93,29)" style="fill: #00ABBB;"/><path d="M0 0 C0 3.3 0 6.6 0 10 C-0.33 10 -0.66 10 -1 10 C-1.144375 9.2575 -1.28875 8.515 -1.4375 7.75 C-1.90187492 5.47972261 -2.41863569 3.24240521 -3 1 C-1 0 -1 0 0 0 Z " transform="translate(65,32)" style="fill: #C5C5C5;"/></svg>